ISO-10303-21;
HEADER;
FILE_DESCRIPTION((''),'1');
FILE_NAME('outfile.stp','2026-05-30T15:44:29',(''),(''),'','','');
FILE_SCHEMA(('CONFIG_CONTROL_DESIGN'));
ENDSEC;
DATA;
#1=CALENDAR_DATE(2000,1,1);
#2=COORDINATED_UNIVERSAL_TIME_OFFSET(0,0,.BEHIND.);
#3=LOCAL_TIME(12,0,0.,#2);
#4=DATE_AND_TIME(#1,#3);
#5=DIMENSIONAL_EXPONENTS(0.,0.,0.,0.,0.,0.,0.);
#6=(
LENGTH_UNIT()
NAMED_UNIT(*)
SI_UNIT(.UNSET.,.METRE.)
);
#7=UNCERTAINTY_MEASURE_WITH_UNIT(LENGTH_MEASURE(1.E-06),#6,'closure','Threshold below which geometry imperfections (such as overlaps) are not considered errors.');
#8=(
NAMED_UNIT(*)
PLANE_ANGLE_UNIT()
SI_UNIT($,.RADIAN.)
);
#9=PLANE_ANGLE_MEASURE_WITH_UNIT(PLANE_ANGLE_MEASURE(0.0174532925199433),#8);
#10=(
CONVERSION_BASED_UNIT('DEGREES',#9)
NAMED_UNIT(#5)
PLANE_ANGLE_UNIT()
);
#11=(
NAMED_UNIT(*)
SI_UNIT($,.STERADIAN.)
SOLID_ANGLE_UNIT()
);
#12=(
GEOMETRIC_REPRESENTATION_CONTEXT(3)
GLOBAL_UNCERTAINTY_ASSIGNED_CONTEXT((#7))
GLOBAL_UNIT_ASSIGNED_CONTEXT((#6,#10,#11))
REPRESENTATION_CONTEXT('STANDARD','3D')
);
#13=CARTESIAN_POINT('',(0.,0.,0.));
#14=DIRECTION('',(0.,0.,1.));
#15=DIRECTION('',(1.,0.,0.));
#16=AXIS2_PLACEMENT_3D('',#13,#14,#15);
#17=APPLICATION_CONTEXT('configuration controlled 3d designs of mechanical parts and assemblies');
#18=MECHANICAL_CONTEXT('',#17,'mechanical');
#19=APPLICATION_PROTOCOL_DEFINITION('international standard','config_control_design',1994,#17);
#20=DESIGN_CONTEXT('',#17,'design');
#21=PRODUCT('','prodname','',(#18));
#22=PRODUCT_RELATED_PRODUCT_CATEGORY('assembly','',(#21));
#23=PRODUCT_DEFINITION_FORMATION_WITH_SPECIFIED_SOURCE('','',#21,.MADE.);
#24=PRODUCT_DEFINITION('','',#23,#20);
#25=PRODUCT_DEFINITION_SHAPE('','ProductShapeDescription',#24);
#26=SHAPE_REPRESENTATION('',(#16),#12);
#27=SHAPE_DEFINITION_REPRESENTATION(#25,#26);
#28=PERSON('','Doe','John',$,$,$);
#29=ORGANIZATION('','','');
#30=PERSON_AND_ORGANIZATION(#28,#29);
#31=PERSON_AND_ORGANIZATION_ROLE('creator');
#32=PERSON_AND_ORGANIZATION_ROLE('design_owner');
#33=PERSON_AND_ORGANIZATION_ROLE('design_supplier');
#34=APPROVAL_STATUS('approved');
#35=APPROVAL(#34,'');
#36=APPROVAL_DATE_TIME(#4,#35);
#37=APPROVAL_ROLE('approver');
#38=APPROVAL_PERSON_ORGANIZATION(#30,#35,#37);
#39=SECURITY_CLASSIFICATION_LEVEL('unclassified');
#40=SECURITY_CLASSIFICATION('','',#39);
#41=CC_DESIGN_SECURITY_CLASSIFICATION(#40,(#23));
#42=PERSON_AND_ORGANIZATION_ROLE('classification_officer');
#43=CC_DESIGN_PERSON_AND_ORGANIZATION_ASSIGNMENT(#30,#42,(#40));
#44=DATE_TIME_ROLE('classification_date');
#45=CC_DESIGN_DATE_AND_TIME_ASSIGNMENT(#4,#44,(#40));
#46=CC_DESIGN_APPROVAL(#35,(#24,#23,#40));
#47=CC_DESIGN_PERSON_AND_ORGANIZATION_ASSIGNMENT(#30,#31,(#24,#23));
#48=CC_DESIGN_PERSON_AND_ORGANIZATION_ASSIGNMENT(#30,#33,(#23));
#49=DATE_TIME_ROLE('creation_date');
#50=CC_DESIGN_DATE_AND_TIME_ASSIGNMENT(#4,#49,(#24));
#51=CC_DESIGN_PERSON_AND_ORGANIZATION_ASSIGNMENT(#30,#32,(#21));
#52=B_SPLINE_SURFACE_WITH_KNOTS('',1,3,((#53, #54, #55, #59, #60, #61, #62),(#56, #57, #58, #63, #64, #65, #66)),.UNSPECIFIED.,.F.,.F.,.F.,(2,2),(4,3,4),(0.,1.),(0.,1.,2.),.PIECEWISE_BEZIER_KNOTS.);
#53=CARTESIAN_POINT('',(0.,0.,0.));
#54=CARTESIAN_POINT('',(-5.1875,3.17642763528845E-16,0.));
#55=CARTESIAN_POINT('',(-8.9375,5.47264038368973E-16,-2.29375));
#56=CARTESIAN_POINT('',(0.,0.,-15.));
#57=CARTESIAN_POINT('',(-8.3,5.08228421646151E-16,-15.));
#58=CARTESIAN_POINT('',(-12.05,7.3784969648628E-16,-15.1));
#59=CARTESIAN_POINT('',(-11.390625,6.97474622326891E-16,-4.846875));
#60=CARTESIAN_POINT('',(-13.84375,8.47685206284808E-16,-7.4));
#61=CARTESIAN_POINT('',(-15.,9.18485099360515E-16,-10.2125));
#62=CARTESIAN_POINT('',(-15.,9.18485099360515E-16,-11.25));
#63=CARTESIAN_POINT('',(-13.725,8.40413865914871E-16,-14.68125));
#64=CARTESIAN_POINT('',(-15.4,9.42978035343462E-16,-14.2625));
#65=CARTESIAN_POINT('',(-15.,9.18485099360515E-16,-13.325));
#66=CARTESIAN_POINT('',(-15.,9.18485099360515E-16,-11.25));
#67=B_SPLINE_SURFACE_WITH_KNOTS('',1,3,((#68, #69, #70, #74, #75, #76, #77),(#71, #72, #73, #78, #79, #80, #81)),.UNSPECIFIED.,.F.,.F.,.F.,(2,2),(4,3,4),(0.,1.),(0.,1.,2.),.PIECEWISE_BEZIER_KNOTS.);
#68=CARTESIAN_POINT('',(15.,-9.18485099360515E-16,-11.25));
#69=CARTESIAN_POINT('',(15.,-9.18485099360515E-16,-10.2125));
#70=CARTESIAN_POINT('',(13.84375,-8.47685206284809E-16,-7.4));
#71=CARTESIAN_POINT('',(15.,-9.18485099360515E-16,-11.25));
#72=CARTESIAN_POINT('',(15.,-9.18485099360515E-16,-13.325));
#73=CARTESIAN_POINT('',(15.4,-9.42978035343462E-16,-14.2625));
#74=CARTESIAN_POINT('',(11.390625,-6.97474622326891E-16,-4.846875));
#75=CARTESIAN_POINT('',(8.9375,-5.47264038368973E-16,-2.29375));
#76=CARTESIAN_POINT('',(5.1875,-3.17642763528845E-16,0.));
#77=CARTESIAN_POINT('',(0.,0.,0.));
#78=CARTESIAN_POINT('',(13.725,-8.40413865914871E-16,-14.68125));
#79=CARTESIAN_POINT('',(12.05,-7.3784969648628E-16,-15.1));
#80=CARTESIAN_POINT('',(8.3,-5.08228421646152E-16,-15.));
#81=CARTESIAN_POINT('',(0.,0.,-15.));
#82=B_SPLINE_SURFACE_WITH_KNOTS('',1,3,((#83, #84, #85, #89, #90, #91, #92),(#86, #87, #88, #93, #94, #95, #96)),.UNSPECIFIED.,.F.,.F.,.F.,(2,2),(4,3,4),(0.,1.),(0.,1.,2.),.PIECEWISE_BEZIER_KNOTS.);
#83=CARTESIAN_POINT('',(0.,0.,0.));
#84=CARTESIAN_POINT('',(5.1875,-3.17642763528845E-16,0.));
#85=CARTESIAN_POINT('',(8.9375,-5.47264038368973E-16,-2.29375));
#86=CARTESIAN_POINT('',(0.,0.,15.));
#87=CARTESIAN_POINT('',(2.075,-1.27057105411538E-16,15.));
#88=CARTESIAN_POINT('',(5.825,-3.56678380251667E-16,10.5125));
#89=CARTESIAN_POINT('',(11.390625,-6.97474622326891E-16,-4.846875));
#90=CARTESIAN_POINT('',(13.84375,-8.47685206284809E-16,-7.4));
#91=CARTESIAN_POINT('',(15.,-9.18485099360515E-16,-10.2125));
#92=CARTESIAN_POINT('',(15.,-9.18485099360515E-16,-11.25));
#93=CARTESIAN_POINT('',(9.05625,-5.54535378738911E-16,4.9875));
#94=CARTESIAN_POINT('',(12.2875,-7.52392377226155E-16,-0.537500000000002));
#95=CARTESIAN_POINT('',(15.,-9.18485099360515E-16,-7.1));
#96=CARTESIAN_POINT('',(15.,-9.18485099360515E-16,-11.25));
#97=B_SPLINE_SURFACE_WITH_KNOTS('',1,3,((#98, #99, #100, #104, #105, #106, #107),(#101, #102, #103, #108, #109, #110, #111)),.UNSPECIFIED.,.F.,.F.,.F.,(2,2),(4,3,4),(0.,1.),(0.,1.,2.),.PIECEWISE_BEZIER_KNOTS.);
#98=CARTESIAN_POINT('',(-15.,9.18485099360515E-16,-11.25));
#99=CARTESIAN_POINT('',(-15.,9.18485099360515E-16,-10.2125));
#100=CARTESIAN_POINT('',(-13.84375,8.47685206284808E-16,-7.4));
#101=CARTESIAN_POINT('',(-15.,9.18485099360515E-16,-11.25));
#102=CARTESIAN_POINT('',(-15.,9.18485099360515E-16,-7.1));
#103=CARTESIAN_POINT('',(-12.2875,7.52392377226155E-16,-0.537500000000002));
#104=CARTESIAN_POINT('',(-11.390625,6.97474622326891E-16,-4.846875));
#105=CARTESIAN_POINT('',(-8.9375,5.47264038368973E-16,-2.29375));
#106=CARTESIAN_POINT('',(-5.1875,3.17642763528845E-16,0.));
#107=CARTESIAN_POINT('',(0.,0.,0.));
#108=CARTESIAN_POINT('',(-9.05625,5.54535378738911E-16,4.9875));
#109=CARTESIAN_POINT('',(-5.825,3.56678380251667E-16,10.5125));
#110=CARTESIAN_POINT('',(-2.075,1.27057105411538E-16,15.));
#111=CARTESIAN_POINT('',(0.,0.,15.));
#112=B_SPLINE_SURFACE_WITH_KNOTS('',1,3,((#113, #114, #115, #119, #120, #121, #122),(#116, #117, #118, #123, #124, #125, #126)),.UNSPECIFIED.,.F.,.F.,.F.,(2,2),(4,3,4),(0.,1.),(0.,1.,2.),.PIECEWISE_BEZIER_KNOTS.);
#113=CARTESIAN_POINT('',(0.,0.,-15.));
#114=CARTESIAN_POINT('',(-8.3,5.08228421646151E-16,-15.));
#115=CARTESIAN_POINT('',(-12.05,7.3784969648628E-16,-15.1));
#116=CARTESIAN_POINT('',(-1.83697019872103E-16,-3.,-14.));
#117=CARTESIAN_POINT('',(-4.4,-3.,-14.));
#118=CARTESIAN_POINT('',(-9.4,-3.,-14.1333333333333));
#119=CARTESIAN_POINT('',(-13.725,8.40413865914871E-16,-14.68125));
#120=CARTESIAN_POINT('',(-15.4,9.42978035343462E-16,-14.2625));
#121=CARTESIAN_POINT('',(-15.,9.18485099360515E-16,-13.325));
#122=CARTESIAN_POINT('',(-15.,9.18485099360515E-16,-11.25));
#123=CARTESIAN_POINT('',(-13.3,-3.,-13.575));
#124=CARTESIAN_POINT('',(-17.2,-3.,-13.0166666666667));
#125=CARTESIAN_POINT('',(-20.,-3.,-11.7666666666667));
#126=CARTESIAN_POINT('',(-20.,-3.,-9.));
#127=B_SPLINE_SURFACE_WITH_KNOTS('',1,3,((#128, #129, #130, #134, #135, #136, #137),(#131, #132, #133, #138, #139, #140, #141)),.UNSPECIFIED.,.F.,.F.,.F.,(2,2),(4,3,4),(0.,1.),(0.,1.,2.),.PIECEWISE_BEZIER_KNOTS.);
#128=CARTESIAN_POINT('',(15.,-9.18485099360515E-16,-11.25));
#129=CARTESIAN_POINT('',(15.,-9.18485099360515E-16,-13.325));
#130=CARTESIAN_POINT('',(15.4,-9.42978035343462E-16,-14.2625));
#131=CARTESIAN_POINT('',(20.,-3.,-9.));
#132=CARTESIAN_POINT('',(20.,-3.,-11.7666666666667));
#133=CARTESIAN_POINT('',(17.2,-3.,-13.0166666666667));
#134=CARTESIAN_POINT('',(13.725,-8.40413865914871E-16,-14.68125));
#135=CARTESIAN_POINT('',(12.05,-7.3784969648628E-16,-15.1));
#136=CARTESIAN_POINT('',(8.3,-5.08228421646152E-16,-15.));
#137=CARTESIAN_POINT('',(0.,0.,-15.));
#138=CARTESIAN_POINT('',(13.3,-3.,-13.575));
#139=CARTESIAN_POINT('',(9.4,-3.,-14.1333333333333));
#140=CARTESIAN_POINT('',(4.4,-3.,-14.));
#141=CARTESIAN_POINT('',(-1.83697019872103E-16,-3.,-14.));
#142=B_SPLINE_SURFACE_WITH_KNOTS('',1,3,((#143, #144, #145, #149, #150, #151, #152),(#146, #147, #148, #153, #154, #155, #156)),.UNSPECIFIED.,.F.,.F.,.F.,(2,2),(4,3,4),(0.,1.),(0.,1.,2.),.PIECEWISE_BEZIER_KNOTS.);
#143=CARTESIAN_POINT('',(0.,0.,15.));
#144=CARTESIAN_POINT('',(2.075,-1.27057105411538E-16,15.));
#145=CARTESIAN_POINT('',(5.825,-3.56678380251667E-16,10.5125));
#146=CARTESIAN_POINT('',(-1.83697019872103E-16,-3.,26.));
#147=CARTESIAN_POINT('',(2.76666666666667,-3.,26.));
#148=CARTESIAN_POINT('',(7.76666666666667,-3.,20.0166666666667));
#149=CARTESIAN_POINT('',(9.05625,-5.54535378738911E-16,4.9875));
#150=CARTESIAN_POINT('',(12.2875,-7.52392377226155E-16,-0.537500000000002));
#151=CARTESIAN_POINT('',(15.,-9.18485099360515E-16,-7.1));
#152=CARTESIAN_POINT('',(15.,-9.18485099360515E-16,-11.25));
#153=CARTESIAN_POINT('',(12.075,-3.,12.65));
#154=CARTESIAN_POINT('',(16.3833333333333,-3.,5.28333333333333));
#155=CARTESIAN_POINT('',(20.,-3.,-3.46666666666667));
#156=CARTESIAN_POINT('',(20.,-3.,-9.));
#157=B_SPLINE_SURFACE_WITH_KNOTS('',1,3,((#158, #159, #160, #164, #165, #166, #167),(#161, #162, #163, #168, #169, #170, #171)),.UNSPECIFIED.,.F.,.F.,.F.,(2,2),(4,3,4),(0.,1.),(0.,1.,2.),.PIECEWISE_BEZIER_KNOTS.);
#158=CARTESIAN_POINT('',(-15.,9.18485099360515E-16,-11.25));
#159=CARTESIAN_POINT('',(-15.,9.18485099360515E-16,-7.1));
#160=CARTESIAN_POINT('',(-12.2875,7.52392377226155E-16,-0.537500000000002));
#161=CARTESIAN_POINT('',(-20.,-3.,-9.));
#162=CARTESIAN_POINT('',(-20.,-3.,-3.46666666666667));
#163=CARTESIAN_POINT('',(-16.3833333333333,-3.,5.28333333333333));
#164=CARTESIAN_POINT('',(-9.05625,5.54535378738911E-16,4.9875));
#165=CARTESIAN_POINT('',(-5.825,3.56678380251667E-16,10.5125));
#166=CARTESIAN_POINT('',(-2.075,1.27057105411538E-16,15.));
#167=CARTESIAN_POINT('',(0.,0.,15.));
#168=CARTESIAN_POINT('',(-12.075,-3.,12.65));
#169=CARTESIAN_POINT('',(-7.76666666666667,-3.,20.0166666666667));
#170=CARTESIAN_POINT('',(-2.76666666666667,-3.,26.));
#171=CARTESIAN_POINT('',(-1.83697019872103E-16,-3.,26.));
#172=B_SPLINE_SURFACE_WITH_KNOTS('',1,3,((#173, #174, #175, #179, #180, #181, #182),(#176, #177, #178, #183, #184, #185, #186)),.UNSPECIFIED.,.F.,.F.,.F.,(2,2),(4,3,4),(0.,1.),(0.,1.,2.),.PIECEWISE_BEZIER_KNOTS.);
#173=CARTESIAN_POINT('',(-1.83697019872103E-16,-3.,-14.));
#174=CARTESIAN_POINT('',(-4.4,-3.,-14.));
#175=CARTESIAN_POINT('',(-9.4,-3.,-14.1333333333333));
#176=CARTESIAN_POINT('',(-1.83697019872103E-16,-3.,-17.5));
#177=CARTESIAN_POINT('',(-13.8333333333333,-3.,-17.5));
#178=CARTESIAN_POINT('',(-20.0833333333333,-3.,-19.3958333333333));
#179=CARTESIAN_POINT('',(-13.3,-3.,-13.575));
#180=CARTESIAN_POINT('',(-17.2,-3.,-13.0166666666667));
#181=CARTESIAN_POINT('',(-20.,-3.,-11.7666666666667));
#182=CARTESIAN_POINT('',(-20.,-3.,-9.));
#183=CARTESIAN_POINT('',(-22.875,-3.,-19.5625));
#184=CARTESIAN_POINT('',(-25.6666666666667,-3.,-19.7291666666667));
#185=CARTESIAN_POINT('',(-25.,-3.,-18.1666666666667));
#186=CARTESIAN_POINT('',(-25.,-3.,-11.25));
#187=B_SPLINE_SURFACE_WITH_KNOTS('',1,3,((#188, #189, #190, #194, #195, #196, #197),(#191, #192, #193, #198, #199, #200, #201)),.UNSPECIFIED.,.F.,.F.,.F.,(2,2),(4,3,4),(0.,1.),(0.,1.,2.),.PIECEWISE_BEZIER_KNOTS.);
#188=CARTESIAN_POINT('',(20.,-3.,-9.));
#189=CARTESIAN_POINT('',(20.,-3.,-11.7666666666667));
#190=CARTESIAN_POINT('',(17.2,-3.,-13.0166666666667));
#191=CARTESIAN_POINT('',(25.,-3.,-11.25));
#192=CARTESIAN_POINT('',(25.,-3.,-18.1666666666667));
#193=CARTESIAN_POINT('',(25.6666666666667,-3.,-19.7291666666667));
#194=CARTESIAN_POINT('',(13.3,-3.,-13.575));
#195=CARTESIAN_POINT('',(9.4,-3.,-14.1333333333333));
#196=CARTESIAN_POINT('',(4.4,-3.,-14.));
#197=CARTESIAN_POINT('',(-1.83697019872103E-16,-3.,-14.));
#198=CARTESIAN_POINT('',(22.875,-3.,-19.5625));
#199=CARTESIAN_POINT('',(20.0833333333333,-3.,-19.3958333333333));
#200=CARTESIAN_POINT('',(13.8333333333333,-3.,-17.5));
#201=CARTESIAN_POINT('',(-1.83697019872103E-16,-3.,-17.5));
#202=B_SPLINE_SURFACE_WITH_KNOTS('',1,3,((#203, #204, #205, #209, #210, #211, #212),(#206, #207, #208, #213, #214, #215, #216)),.UNSPECIFIED.,.F.,.F.,.F.,(2,2),(4,3,4),(0.,1.),(0.,1.,2.),.PIECEWISE_BEZIER_KNOTS.);
#203=CARTESIAN_POINT('',(-1.83697019872103E-16,-3.,26.));
#204=CARTESIAN_POINT('',(2.76666666666667,-3.,26.));
#205=CARTESIAN_POINT('',(7.76666666666667,-3.,20.0166666666667));
#206=CARTESIAN_POINT('',(-1.83697019872103E-16,-3.,32.5));
#207=CARTESIAN_POINT('',(5.1875,-3.,32.5));
#208=CARTESIAN_POINT('',(11.4375,-3.,25.0208333333333));
#209=CARTESIAN_POINT('',(12.075,-3.,12.65));
#210=CARTESIAN_POINT('',(16.3833333333333,-3.,5.28333333333333));
#211=CARTESIAN_POINT('',(20.,-3.,-3.46666666666667));
#212=CARTESIAN_POINT('',(20.,-3.,-9.));
#213=CARTESIAN_POINT('',(16.390625,-3.,15.8125));
#214=CARTESIAN_POINT('',(21.34375,-3.,6.60416666666667));
#215=CARTESIAN_POINT('',(25.,-3.,-4.33333333333333));
#216=CARTESIAN_POINT('',(25.,-3.,-11.25));
#217=B_SPLINE_SURFACE_WITH_KNOTS('',1,3,((#218, #219, #220, #224, #225, #226, #227),(#221, #222, #223, #228, #229, #230, #231)),.UNSPECIFIED.,.F.,.F.,.F.,(2,2),(4,3,4),(0.,1.),(0.,1.,2.),.PIECEWISE_BEZIER_KNOTS.);
#218=CARTESIAN_POINT('',(-20.,-3.,-9.));
#219=CARTESIAN_POINT('',(-20.,-3.,-3.46666666666667));
#220=CARTESIAN_POINT('',(-16.3833333333333,-3.,5.28333333333333));
#221=CARTESIAN_POINT('',(-25.,-3.,-11.25));
#222=CARTESIAN_POINT('',(-25.,-3.,-4.33333333333333));
#223=CARTESIAN_POINT('',(-21.34375,-3.,6.60416666666667));
#224=CARTESIAN_POINT('',(-12.075,-3.,12.65));
#225=CARTESIAN_POINT('',(-7.76666666666667,-3.,20.0166666666667));
#226=CARTESIAN_POINT('',(-2.76666666666667,-3.,26.));
#227=CARTESIAN_POINT('',(-1.83697019872103E-16,-3.,26.));
#228=CARTESIAN_POINT('',(-16.390625,-3.,15.8125));
#229=CARTESIAN_POINT('',(-11.4375,-3.,25.0208333333333));
#230=CARTESIAN_POINT('',(-5.1875,-3.,32.5));
#231=CARTESIAN_POINT('',(-1.83697019872103E-16,-3.,32.5));
#232=B_SPLINE_SURFACE_WITH_KNOTS('',1,3,((#233, #234, #235, #239, #240, #241, #242),(#236, #237, #238, #243, #244, #245, #246)),.UNSPECIFIED.,.F.,.F.,.F.,(2,2),(4,3,4),(0.,1.),(0.,1.,2.),.PIECEWISE_BEZIER_KNOTS.);
#233=CARTESIAN_POINT('',(-1.83697019872103E-16,-3.,-17.5));
#234=CARTESIAN_POINT('',(-13.8333333333333,-3.,-17.5));
#235=CARTESIAN_POINT('',(-20.0833333333333,-3.,-19.3958333333333));
#236=CARTESIAN_POINT('',(1.29937940830014E-15,21.220476127563,-17.8981456572267));
#237=CARTESIAN_POINT('',(-11.0666666666667,21.220476127563,-17.8981456572267));
#238=CARTESIAN_POINT('',(-16.0666666666667,21.7111539005699,-19.7293800362331));
#239=CARTESIAN_POINT('',(-22.875,-3.,-19.5625));
#240=CARTESIAN_POINT('',(-25.6666666666667,-3.,-19.7291666666667));
#241=CARTESIAN_POINT('',(-25.,-3.,-18.1666666666667));
#242=CARTESIAN_POINT('',(-25.,-3.,-11.25));
#243=CARTESIAN_POINT('',(-18.3,21.754290408087,-19.8903676739479));
#244=CARTESIAN_POINT('',(-20.5333333333333,21.7974269156041,-20.0513553116628));
#245=CARTESIAN_POINT('',(-20.,21.3930221576314,-18.5420962080861));
#246=CARTESIAN_POINT('',(-20.,19.6028570956723,-11.86110924292));
#247=B_SPLINE_SURFACE_WITH_KNOTS('',1,3,((#248, #249, #250, #254, #255, #256, #257),(#251, #252, #253, #258, #259, #260, #261)),.UNSPECIFIED.,.F.,.F.,.F.,(2,2),(4,3,4),(0.,1.),(0.,1.,2.),.PIECEWISE_BEZIER_KNOTS.);
#248=CARTESIAN_POINT('',(25.,-3.,-11.25));
#249=CARTESIAN_POINT('',(25.,-3.,-18.1666666666667));
#250=CARTESIAN_POINT('',(25.6666666666667,-3.,-19.7291666666667));
#251=CARTESIAN_POINT('',(20.,19.6028570956723,-11.86110924292));
#252=CARTESIAN_POINT('',(20.,21.3930221576314,-18.5420962080861));
#253=CARTESIAN_POINT('',(20.5333333333333,21.7974269156041,-20.0513553116628));
#254=CARTESIAN_POINT('',(22.875,-3.,-19.5625));
#255=CARTESIAN_POINT('',(20.0833333333333,-3.,-19.3958333333333));
#256=CARTESIAN_POINT('',(13.8333333333333,-3.,-17.5));
#257=CARTESIAN_POINT('',(-1.83697019872103E-16,-3.,-17.5));
#258=CARTESIAN_POINT('',(18.3,21.754290408087,-19.8903676739479));
#259=CARTESIAN_POINT('',(16.0666666666667,21.7111539005699,-19.7293800362331));
#260=CARTESIAN_POINT('',(11.0666666666667,21.220476127563,-17.8981456572267));
#261=CARTESIAN_POINT('',(1.29937940830014E-15,21.220476127563,-17.8981456572267));
#262=B_SPLINE_SURFACE_WITH_KNOTS('',1,3,((#263, #264, #265, #269, #270, #271, #272),(#266, #267, #268, #273, #274, #275, #276)),.UNSPECIFIED.,.F.,.F.,.F.,(2,2),(4,3,4),(0.,1.),(0.,1.,2.),.PIECEWISE_BEZIER_KNOTS.);
#263=CARTESIAN_POINT('',(-1.83697019872103E-16,-3.,32.5));
#264=CARTESIAN_POINT('',(5.1875,-3.,32.5));
#265=CARTESIAN_POINT('',(11.4375,-3.,25.0208333333333));
#266=CARTESIAN_POINT('',(5.06974620442202E-16,8.27952387243698,30.3981456572267));
#267=CARTESIAN_POINT('',(4.15,8.27952387243698,30.3981456572267));
#268=CARTESIAN_POINT('',(9.15,10.2152746472663,23.1738254147731));
#269=CARTESIAN_POINT('',(16.390625,-3.,15.8125));
#270=CARTESIAN_POINT('',(21.34375,-3.,6.60416666666667));
#271=CARTESIAN_POINT('',(25.,-3.,-4.33333333333333));
#272=CARTESIAN_POINT('',(25.,-3.,-11.25));
#273=CARTESIAN_POINT('',(13.1125,12.5985666875853,14.2792584310279));
#274=CARTESIAN_POINT('',(17.075,14.9818587279043,5.38469144728271));
#275=CARTESIAN_POINT('',(20.,17.8126920337132,-5.18012227775397));
#276=CARTESIAN_POINT('',(20.,19.6028570956723,-11.86110924292));
#277=B_SPLINE_SURFACE_WITH_KNOTS('',1,3,((#278, #279, #280, #284, #285, #286, #287),(#281, #282, #283, #288, #289, #290, #291)),.UNSPECIFIED.,.F.,.F.,.F.,(2,2),(4,3,4),(0.,1.),(0.,1.,2.),.PIECEWISE_BEZIER_KNOTS.);
#278=CARTESIAN_POINT('',(-25.,-3.,-11.25));
#279=CARTESIAN_POINT('',(-25.,-3.,-4.33333333333333));
#280=CARTESIAN_POINT('',(-21.34375,-3.,6.60416666666667));
#281=CARTESIAN_POINT('',(-20.,19.6028570956723,-11.86110924292));
#282=CARTESIAN_POINT('',(-20.,17.8126920337132,-5.18012227775397));
#283=CARTESIAN_POINT('',(-17.075,14.9818587279043,5.38469144728271));
#284=CARTESIAN_POINT('',(-16.390625,-3.,15.8125));
#285=CARTESIAN_POINT('',(-11.4375,-3.,25.0208333333333));
#286=CARTESIAN_POINT('',(-5.1875,-3.,32.5));
#287=CARTESIAN_POINT('',(-1.83697019872103E-16,-3.,32.5));
#288=CARTESIAN_POINT('',(-13.1125,12.5985666875853,14.2792584310279));
#289=CARTESIAN_POINT('',(-9.15,10.2152746472663,23.1738254147731));
#290=CARTESIAN_POINT('',(-4.15,8.27952387243698,30.3981456572267));
#291=CARTESIAN_POINT('',(5.06974620442202E-16,8.27952387243698,30.3981456572267));
#292=B_SPLINE_SURFACE_WITH_KNOTS('',3,3,((#293, #294, #295, #305, #306, #307, #308),(#296, #297, #298, #309, #310, #311, #312),(#299, #300, #301, #313, #314, #315, #316),(#302, #303, #304, #317, #318, #319, #320)),.UNSPECIFIED.,.F.,.F.,.F.,(4,4),(4,3,4),(0.,1.),(0.,1.,2.),.PIECEWISE_BEZIER_KNOTS.);
#293=CARTESIAN_POINT('',(1.29937940830014E-15,21.220476127563,-17.8981456572267));
#294=CARTESIAN_POINT('',(-11.0666666666667,21.220476127563,-17.8981456572267));
#295=CARTESIAN_POINT('',(-16.0666666666667,21.7111539005699,-19.7293800362331));
#296=CARTESIAN_POINT('',(1.69831863372397E-15,27.7356481053379,-18.0052446017468));
#297=CARTESIAN_POINT('',(-10.3203648941258,27.7538921272435,-18.0055445041126));
#298=CARTESIAN_POINT('',(-15.111522703193,27.5873471317562,-19.8086958336964));
#299=CARTESIAN_POINT('',(1.80991202325944E-15,29.558106460076,-7.48923690467564));
#300=CARTESIAN_POINT('',(-8.22618230413052,29.6022234844668,-7.49238834048201));
#301=CARTESIAN_POINT('',(-12.6934817934477,29.4205899494297,-10.4370086236057));
#302=CARTESIAN_POINT('',(1.60337798527117E-15,26.1851496511077,5.09880927812953));
#303=CARTESIAN_POINT('',(-6.4237705605253,26.2299452698056,5.09312529389146));
#304=CARTESIAN_POINT('',(-10.8612714249465,26.3753558535829,0.927959743035615));
#305=CARTESIAN_POINT('',(-18.3,21.754290408087,-19.8903676739479));
#306=CARTESIAN_POINT('',(-20.5333333333333,21.7974269156041,-20.0513553116628));
#307=CARTESIAN_POINT('',(-20.,21.3930221576314,-18.5420962080861));
#308=CARTESIAN_POINT('',(-20.,19.6028570956723,-11.86110924292));
#309=CARTESIAN_POINT('',(-17.4269893647491,26.477953532535,-19.952932038169));
#310=CARTESIAN_POINT('',(-19.8025671782462,25.3275152902478,-20.0972211345166));
#311=CARTESIAN_POINT('',(-19.6197872299893,23.2479298623285,-18.5706448292635));
#312=CARTESIAN_POINT('',(-20.,19.6028570956723,-11.86110924292));
#313=CARTESIAN_POINT('',(-15.4367226315971,28.0632161131396,-12.4563502962203));
#314=CARTESIAN_POINT('',(-18.3377882388371,26.5660554704784,-14.4936622250155));
#315=CARTESIAN_POINT('',(-19.2575523633172,23.9194132850006,-15.6128095098219));
#316=CARTESIAN_POINT('',(-20.,19.6028570956723,-11.86110924292));
#317=CARTESIAN_POINT('',(-14.0426654406153,25.6027626208585,-3.27381285336712));
#318=CARTESIAN_POINT('',(-17.3989082246275,24.7157419985998,-7.58819833803512));
#319=CARTESIAN_POINT('',(-19.2575523633172,22.939167544663,-11.954482602979));
#320=CARTESIAN_POINT('',(-20.,19.6028570956723,-11.86110924292));
#321=B_SPLINE_SURFACE_WITH_KNOTS('',3,3,((#322, #323, #324, #334, #335, #336, #337),(#325, #326, #327, #338, #339, #340, #341),(#328, #329, #330, #342, #343, #344, #345),(#331, #332, #333, #346, #347, #348, #349)),.UNSPECIFIED.,.F.,.F.,.F.,(4,4),(4,3,4),(0.,1.),(0.,1.,2.),.PIECEWISE_BEZIER_KNOTS.);
#322=CARTESIAN_POINT('',(20.,19.6028570956723,-11.86110924292));
#323=CARTESIAN_POINT('',(20.,21.3930221576314,-18.5420962080861));
#324=CARTESIAN_POINT('',(20.5333333333333,21.7974269156041,-20.0513553116628));
#325=CARTESIAN_POINT('',(20.,19.6028570956723,-11.86110924292));
#326=CARTESIAN_POINT('',(19.6197872299893,23.2479298623285,-18.5706448292635));
#327=CARTESIAN_POINT('',(19.8025671782462,25.3275152902478,-20.0972211345166));
#328=CARTESIAN_POINT('',(20.,19.6028570956723,-11.86110924292));
#329=CARTESIAN_POINT('',(19.2575523633172,23.9194132850006,-15.6128095098219));
#330=CARTESIAN_POINT('',(18.3377882388371,26.5660554704784,-14.4936622250155));
#331=CARTESIAN_POINT('',(20.,19.6028570956723,-11.86110924292));
#332=CARTESIAN_POINT('',(19.2575523633172,22.939167544663,-11.954482602979));
#333=CARTESIAN_POINT('',(17.3989082246275,24.7157419985998,-7.58819833803512));
#334=CARTESIAN_POINT('',(18.3,21.754290408087,-19.8903676739479));
#335=CARTESIAN_POINT('',(16.0666666666667,21.7111539005699,-19.7293800362331));
#336=CARTESIAN_POINT('',(11.0666666666667,21.220476127563,-17.8981456572267));
#337=CARTESIAN_POINT('',(1.29937940830014E-15,21.220476127563,-17.8981456572267));
#338=CARTESIAN_POINT('',(17.4269893647491,26.477953532535,-19.952932038169));
#339=CARTESIAN_POINT('',(15.111522703193,27.5873471317562,-19.8086958336964));
#340=CARTESIAN_POINT('',(10.3203648941259,27.7538921272435,-18.0055445041126));
#341=CARTESIAN_POINT('',(1.69831863372397E-15,27.7356481053379,-18.0052446017468));
#342=CARTESIAN_POINT('',(15.4367226315971,28.0632161131396,-12.4563502962203));
#343=CARTESIAN_POINT('',(12.6934817934477,29.4205899494297,-10.4370086236057));
#344=CARTESIAN_POINT('',(8.22618230413053,29.6022234844668,-7.49238834048201));
#345=CARTESIAN_POINT('',(1.80991202325944E-15,29.558106460076,-7.48923690467564));
#346=CARTESIAN_POINT('',(14.0426654406153,25.6027626208585,-3.27381285336712));
#347=CARTESIAN_POINT('',(10.8612714249465,26.3753558535829,0.927959743035615));
#348=CARTESIAN_POINT('',(6.42377056052531,26.2299452698056,5.09312529389146));
#349=CARTESIAN_POINT('',(1.60337798527117E-15,26.1851496511077,5.09880927812953));
#350=B_SPLINE_SURFACE_WITH_KNOTS('',3,3,((#351, #352, #353, #363, #364, #365, #366),(#354, #355, #356, #367, #368, #369, #370),(#357, #358, #359, #371, #372, #373, #374),(#360, #361, #362, #375, #376, #377, #378)),.UNSPECIFIED.,.F.,.F.,.F.,(4,4),(4,3,4),(0.,1.),(0.,1.,2.),.PIECEWISE_BEZIER_KNOTS.);
#351=CARTESIAN_POINT('',(5.06974620442202E-16,8.27952387243698,30.3981456572267));
#352=CARTESIAN_POINT('',(4.15,8.27952387243698,30.3981456572267));
#353=CARTESIAN_POINT('',(9.15,10.2152746472663,23.1738254147731));
#354=CARTESIAN_POINT('',(8.99215857694838E-16,14.6853094022033,29.2044757570712));
#355=CARTESIAN_POINT('',(3.55771580066729,14.7187371405242,29.1982467497342));
#356=CARTESIAN_POINT('',(8.14401405833455,16.0270256900631,22.3615569993779));
#357=CARTESIAN_POINT('',(1.39684394728291E-15,22.8121928421393,17.6868554609347));
#358=CARTESIAN_POINT('',(4.62135881692008,22.8576670551443,17.6786389282649));
#359=CARTESIAN_POINT('',(9.02906105644539,23.3301217577361,12.2929281096769));
#360=CARTESIAN_POINT('',(1.60337798527117E-15,26.1851496511077,5.09880927812953));
#361=CARTESIAN_POINT('',(6.42377056052531,26.2299452698056,5.09312529389146));
#362=CARTESIAN_POINT('',(10.8612714249465,26.3753558535829,0.927959743035615));
#363=CARTESIAN_POINT('',(13.1125,12.5985666875853,14.2792584310279));
#364=CARTESIAN_POINT('',(17.075,14.9818587279043,5.38469144728271));
#365=CARTESIAN_POINT('',(20.,17.8126920337132,-5.18012227775397));
#366=CARTESIAN_POINT('',(20.,19.6028570956723,-11.86110924292));
#367=CARTESIAN_POINT('',(12.1290208284818,17.2783349828081,13.8192664697726));
#368=CARTESIAN_POINT('',(16.2440972366772,18.4819878304979,5.14732328808158));
#369=CARTESIAN_POINT('',(19.5579954746665,19.6525528463677,-5.25497918684123));
#370=CARTESIAN_POINT('',(20.,19.6028570956723,-11.86110924292));
#371=CARTESIAN_POINT('',(12.6486082496335,23.1423091285775,5.90872458948606));
#372=CARTESIAN_POINT('',(16.460028210418,22.8654285267211,-0.68273445105473));
#373=CARTESIAN_POINT('',(19.2575523633172,21.9589218043254,-8.29615569613614));
#374=CARTESIAN_POINT('',(20.,19.6028570956723,-11.86110924292));
#375=CARTESIAN_POINT('',(14.0426654406153,25.6027626208585,-3.27381285336712));
#376=CARTESIAN_POINT('',(17.3989082246275,24.7157419985998,-7.58819833803512));
#377=CARTESIAN_POINT('',(19.2575523633172,22.939167544663,-11.954482602979));
#378=CARTESIAN_POINT('',(20.,19.6028570956723,-11.86110924292));
#379=B_SPLINE_SURFACE_WITH_KNOTS('',3,3,((#380, #381, #382, #392, #393, #394, #395),(#383, #384, #385, #396, #397, #398, #399),(#386, #387, #388, #400, #401, #402, #403),(#389, #390, #391, #404, #405, #406, #407)),.UNSPECIFIED.,.F.,.F.,.F.,(4,4),(4,3,4),(0.,1.),(0.,1.,2.),.PIECEWISE_BEZIER_KNOTS.);
#380=CARTESIAN_POINT('',(-20.,19.6028570956723,-11.86110924292));
#381=CARTESIAN_POINT('',(-20.,17.8126920337132,-5.18012227775397));
#382=CARTESIAN_POINT('',(-17.075,14.9818587279043,5.38469144728271));
#383=CARTESIAN_POINT('',(-20.,19.6028570956723,-11.86110924292));
#384=CARTESIAN_POINT('',(-19.5579954746665,19.6525528463677,-5.25497918684123));
#385=CARTESIAN_POINT('',(-16.2440972366772,18.4819878304979,5.14732328808158));
#386=CARTESIAN_POINT('',(-20.,19.6028570956723,-11.86110924292));
#387=CARTESIAN_POINT('',(-19.2575523633172,21.9589218043254,-8.29615569613614));
#388=CARTESIAN_POINT('',(-16.460028210418,22.8654285267211,-0.68273445105473));
#389=CARTESIAN_POINT('',(-20.,19.6028570956723,-11.86110924292));
#390=CARTESIAN_POINT('',(-19.2575523633172,22.939167544663,-11.954482602979));
#391=CARTESIAN_POINT('',(-17.3989082246275,24.7157419985998,-7.58819833803512));
#392=CARTESIAN_POINT('',(-13.1125,12.5985666875853,14.2792584310279));
#393=CARTESIAN_POINT('',(-9.15,10.2152746472663,23.1738254147731));
#394=CARTESIAN_POINT('',(-4.15,8.27952387243698,30.3981456572267));
#395=CARTESIAN_POINT('',(5.06974620442202E-16,8.27952387243698,30.3981456572267));
#396=CARTESIAN_POINT('',(-12.1290208284818,17.2783349828081,13.8192664697726));
#397=CARTESIAN_POINT('',(-8.14401405833454,16.0270256900631,22.3615569993779));
#398=CARTESIAN_POINT('',(-3.55771580066729,14.7187371405242,29.1982467497342));
#399=CARTESIAN_POINT('',(8.99215857694838E-16,14.6853094022033,29.2044757570712));
#400=CARTESIAN_POINT('',(-12.6486082496335,23.1423091285775,5.90872458948606));
#401=CARTESIAN_POINT('',(-9.02906105644538,23.3301217577361,12.2929281096769));
#402=CARTESIAN_POINT('',(-4.62135881692007,22.8576670551443,17.6786389282649));
#403=CARTESIAN_POINT('',(1.39684394728291E-15,22.8121928421393,17.6868554609347));
#404=CARTESIAN_POINT('',(-14.0426654406153,25.6027626208585,-3.27381285336712));
#405=CARTESIAN_POINT('',(-10.8612714249465,26.3753558535829,0.927959743035615));
#406=CARTESIAN_POINT('',(-6.4237705605253,26.2299452698056,5.09312529389146));
#407=CARTESIAN_POINT('',(1.60337798527117E-15,26.1851496511077,5.09880927812953));
#408=GEOMETRIC_SET('',(#52,#67,#82,#97,#112,#127,#142,#157,#172,#187,#202,#217,#232,#247,#262,#277,#292,#321,#350,#379));
#409=GEOMETRICALLY_BOUNDED_SURFACE_SHAPE_REPRESENTATION('',(#408),#12);
#410=SHAPE_REPRESENTATION_RELATIONSHIP('','',#26,#409);
ENDSEC;
END-ISO-10303-21;
